<svg width="57" height="57" viewBox="0 0 57 57" fill="none" xmlns="http://www.w3.org/2000/svg">
<path d="M28.5 0C12.76 0 0 12.76 0 28.5C0 44.24 12.76 57 28.5 57C44.24 57 57 44.24 57 28.5C57 12.76 44.24 0 28.5 0Z" fill="#006600"/>
<path d="M57 28.5C57 44.24 44.24 57 28.5 57V0C44.24 0 57 12.76 57 28.5Z" fill="#FF0000"/>
<rect x="16" y="16" width="25" height="25" fill="white"/>
<g transform="translate(28.5, 28.5) scale(0.4)">
    <g transform="translate(-50, -50)">
        <path d="M50 10 C 40 20, 40 40, 50 50 C 60 40, 60 20, 50 10 Z" fill="#003399"/>
        <circle cx="50" cy="25" r="3" fill="white"/>
        <circle cx="50" cy="35" r="3" fill="white"/>
        <circle cx="45" cy="30" r="3" fill="white"/>
        <circle cx="55" cy="30" r="3" fill="white"/>
        <circle cx="50" cy="30" r="3" fill="white"/>
    </g>
    <g transform="translate(-80, -50)">
        <path d="M50 10 C 40 20, 40 40, 50 50 C 60 40, 60 20, 50 10 Z" fill="#003399"/>
        <circle cx="50" cy="25" r="3" fill="white"/>
        <circle cx="50" cy="35" r="3" fill="white"/>
        <circle cx="45" cy="30" r="3" fill="white"/>
        <circle cx="55" cy="30" r="3" fill="white"/>
        <circle cx="50" cy="30" r="3" fill="white"/>
    </g>
    <g transform="translate(-20, -50)">
        <path d="M50 10 C 40 20, 40 40, 50 50 C 60 40, 60 20, 50 10 Z" fill="#003399"/>
        <circle cx="50" cy="25" r="3" fill="white"/>
        <circle cx="50" cy="35" r="3" fill="white"/>
        <circle cx="45" cy="30" r="3" fill="white"/>
        <circle cx="55" cy="30" r="3" fill="white"/>
        <circle cx="50" cy="30" r="3" fill="white"/>
    </g>
    <g transform="translate(-50, -80)">
        <path d="M50 10 C 40 20, 40 40, 50 50 C 60 40, 60 20, 50 10 Z" fill="#003399"/>
        <circle cx="50" cy="25" r="3" fill="white"/>
        <circle cx="50" cy="35" r="3" fill="white"/>
        <circle cx="45" cy="30" r="3" fill="white"/>
        <circle cx="55" cy="30" r="3" fill="white"/>
        <circle cx="50" cy="30" r="3" fill="white"/>
    </g>
    <g transform="translate(-50, -20)">
        <path d="M50 10 C 40 20, 40 40, 50 50 C 60 40, 60 20, 50 10 Z" fill="#003399"/>
        <circle cx="50" cy="25" r="3" fill="white"/>
        <circle cx="50" cy="35" r="3" fill="white"/>
        <circle cx="45" cy="30" r="3" fill="white"/>
        <circle cx="55" cy="30" r="3" fill="white"/>
        <circle cx="50" cy="30" r="3" fill="white"/>
    </g>
</g>
</svg>
