<svg width="240" height="340" viewBox="0 0 240 340" fill="none" xmlns="http://www.w3.org/2000/svg">
<path d="M102.213 234.331C102.213 234.331 46.8524 246.331 24.213 293.331C1.57361 340.331 46.213 340.331 46.213 340.331H92.713V252.331L102.213 234.331Z" fill="#008D36"/>
<path d="M102.213 252.331V234.331C102.213 234.331 46.8524 246.331 24.213 293.331C10.211 322.399 26.213 335.331 38.213 339.331C28.213 331.331 15.213 315.331 24.213 293.331C46.8524 246.331 102.213 234.331 102.213 234.331Z" fill="#006426"/>
<path d="M102.213 234.331C102.213 234.331 21.213 248.831 24.213 107.331C27.213 -34.1691 102.213 0.330856 102.213 0.330856V234.331Z" fill="#1DA944"/>
<path d="M102.213 234.331V107.331C102.213 107.331 21.213 121.831 24.213 234.331C24.213 234.331 102.213 234.331 102.213 234.331Z" fill="#008D36"/>
<path d="M121.213 234.331C121.213 234.331 202.213 248.831 199.213 107.331C196.213 -34.1691 121.213 0.330856 121.213 0.330856V234.331Z" fill="#E31E24"/>
<path d="M121.213 234.331V107.331C121.213 107.331 202.213 121.831 199.213 234.331C199.213 234.331 121.213 234.331 121.213 234.331Z" fill="#B31A1E"/>
<path d="M121.213 234.331C121.213 234.331 176.574 246.331 199.213 293.331C221.852 340.331 177.213 340.331 177.213 340.331H130.713V252.331L121.213 234.331Z" fill="#B31A1E"/>
<path d="M121.213 252.331V234.331C121.213 234.331 176.574 246.331 199.213 293.331C213.215 322.399 197.213 335.331 185.213 339.331C195.213 331.331 208.213 315.331 199.213 293.331C176.574 246.331 121.213 234.331 121.213 234.331Z" fill="#8C1518"/>
<path d="M141.213 52.3309H82.2130C75.0333 52.3309 69.213 58.1512 69.213 65.3309V124.331C69.213 131.511 75.0333 137.331 82.2130 137.331H141.213C148.393 137.331 154.213 131.511 154.213 124.331V65.3309C154.213 58.1512 148.393 52.3309 141.213 52.3309Z" fill="white"/>
<path d="M111.713 61.3309H111.713C108.675 61.3309 106.213 63.7932 106.213 66.8309V77.8309C106.213 80.8685 108.675 83.3309 111.713 83.3309H111.713C114.751 83.3309 117.213 80.8685 117.213 77.8309V66.8309C117.213 63.7932 114.751 61.3309 111.713 61.3309Z" fill="black"/>
<path d="M111.713 106.331H111.713C108.675 106.331 106.213 108.793 106.213 111.831V122.831C106.213 125.869 108.675 128.331 111.713 128.331H111.713C114.751 128.331 117.213 125.869 117.213 122.831V111.831C117.213 108.793 114.751 106.331 111.713 106.331Z" fill="black"/>
<path d="M89.713 83.3309V83.3309C86.6753 83.3309 84.213 85.7932 84.213 88.8309V99.8309C84.213 102.869 86.6753 105.331 89.713 105.331V105.331C92.7506 105.331 95.213 102.869 95.213 99.8309V88.8309C95.213 85.7932 92.7506 83.3309 89.713 83.3309Z" fill="black"/>
<path d="M134.713 83.3309V83.3309C131.675 83.3309 129.213 85.7932 129.213 88.8309V99.8309C129.213 102.869 131.675 105.331 134.713 105.331V105.331C137.751 105.331 140.213 102.869 140.213 99.8309V88.8309C140.213 85.7932 137.751 83.3309 134.713 83.3309Z" fill="black"/>
<path d="M111.713 83.3309H111.713C108.675 83.3309 106.213 85.7932 106.213 88.8309V99.8309C106.213 102.869 108.675 105.331 111.713 105.331H111.713C114.751 105.331 117.213 102.869 117.213 99.8309V88.8309C117.213 85.7932 114.751 83.3309 111.713 83.3309Z" fill="black"/>
</svg>
